<svg version="1.1" xmlns="http://www.w3.org/2000/svg" viewBox="0 0 812.1228319553311 402.7634026245415" width="1624.2456639106622" height="805.526805249083">
  <!-- svg-source:excalidraw -->
  
  <defs>
    <style class="style-fonts">
      @font-face {
        font-family: "Virgil";
        src: url("https://excalidraw.com/Virgil.woff2");
      }
      @font-face {
        font-family: "Cascadia";
        src: url("https://excalidraw.com/Cascadia.woff2");
      }
    </style>
    
  </defs>
  <g stroke-linecap="round" transform="translate(288.11792068595287 171.51730887454156) rotate(0 104 43)"><path d="M-1.7 -1.15 C70.83 0.07, 144.51 -0.53, 208.02 -0.09 M-0.44 -0.29 C65.76 1.69, 130.44 1.39, 207.69 -0.14 M207.66 0.34 C207.82 32.5, 209.63 61.51, 208.15 84.21 M208.95 -0.98 C208.26 17.38, 209.49 34.24, 208.28 86.48 M208.67 84.94 C154.21 86.49, 99.5 86.75, 0.65 86.58 M208.23 86.11 C146.3 86.77, 86.51 86.99, -0.33 86.66 M-0.63 85.5 C1.42 54.96, 0.47 22.42, -0.36 1.65 M0.24 85.87 C-1.58 66, -1.23 46.16, 0.82 0.51" stroke="#ffffff" stroke-width="1" fill="none"></path></g><g transform="translate(314.94604568595287 202.51730887454156) rotate(0 76.171875 12.5)"><text x="76.171875" y="0" font-family="Cascadia, Segoe UI Emoji" font-size="20px" fill="#ffffff" text-anchor="middle" style="white-space: pre;" direction="ltr" dominant-baseline="text-before-edge">Reverse Proxy</text></g><g stroke-linecap="round"><g transform="translate(285.61792068595287 202.2218341303599) rotate(0 -45.44551580438389 -57.13477206431719)"><path d="M-0.3 0.57 C-15.73 -18.53, -77.26 -95.85, -92.63 -114.84 M1.74 -0.18 C-13.29 -19.08, -74.36 -94.37, -90.25 -113.53" stroke="#ffffff" stroke-width="1" fill="none"></path></g><g transform="translate(285.61792068595287 202.2218341303599) rotate(0 -45.44551580438389 -57.13477206431719)"><path d="M-63.51 -99.26 C-72.8 -103.69, -77.97 -108.88, -89.09 -112.29 M-65.34 -97.57 C-70.65 -101.87, -75.85 -106.04, -89.54 -113.05" stroke="#ffffff" stroke-width="1" fill="none"></path></g><g transform="translate(285.61792068595287 202.2218341303599) rotate(0 -45.44551580438389 -57.13477206431719)"><path d="M-79.39 -86.27 C-83.95 -94.5, -84.41 -103.55, -89.09 -112.29 M-81.22 -84.57 C-82.78 -91.98, -84.26 -99.19, -89.54 -113.05" stroke="#ffffff" stroke-width="1" fill="none"></path></g></g><mask></mask><g stroke-linecap="round"><g transform="translate(284.61792068595287 209.4445150209194) rotate(0 -44.326189249269646 2.5542308129735716)"><path d="M-1.15 0.22 C-15.89 1.16, -73.85 5.09, -88.45 5.82 M0.45 -0.71 C-14.4 -0.1, -74.13 3.21, -89.11 4.31" stroke="#ffffff" stroke-width="1" fill="none"></path></g><g transform="translate(284.61792068595287 209.4445150209194) rotate(0 -44.326189249269646 2.5542308129735716)"><path d="M-61.25 -6.78 C-67.9 -3.96, -78.2 -1.5, -88.75 5.52 M-60.93 -7.63 C-72.45 -3.89, -83.09 2.74, -88.77 5.02" stroke="#ffffff" stroke-width="1" fill="none"></path></g><g transform="translate(284.61792068595287 209.4445150209194) rotate(0 -44.326189249269646 2.5542308129735716)"><path d="M-59.96 13.71 C-67.03 10.37, -77.72 6.69, -88.75 5.52 M-59.65 12.86 C-71.57 8.7, -82.71 7.42, -88.77 5.02" stroke="#ffffff" stroke-width="1" fill="none"></path></g></g><mask></mask><g stroke-linecap="round"><g transform="translate(287.11792068595287 216.2215487308214) rotate(0 -46.114574055187404 57.5884652530944)"><path d="M-0.8 0.27 C-16.12 19.77, -77.04 96.56, -92 115.81 M0.98 -0.63 C-14.53 18.59, -77.91 94.85, -93.21 113.89" stroke="#ffffff" stroke-width="1" fill="none"></path></g><g transform="translate(287.11792068595287 216.2215487308214) rotate(0 -46.114574055187404 57.5884652530944)"><path d="M-82.84 84.75 C-85.82 95.41, -88.77 102.29, -94.82 115.19 M-82.35 85.21 C-87.1 95.71, -89.47 104.2, -93.87 114.64" stroke="#ffffff" stroke-width="1" fill="none"></path></g><g transform="translate(287.11792068595287 216.2215487308214) rotate(0 -46.114574055187404 57.5884652530944)"><path d="M-66.96 97.75 C-74.49 104.48, -82.12 107.53, -94.82 115.19 M-66.47 98.21 C-76.69 104.14, -84.51 108.16, -93.87 114.64" stroke="#ffffff" stroke-width="1" fill="none"></path></g></g><mask></mask><g stroke-linecap="round" transform="translate(566.883065073612 145.24879192465264) rotate(0 117.40992589976383 70.26851694988883)"><path d="M1 -0.34 C90.12 0.77, 177.09 -0.22, 233.38 -0.3 M0.44 -0.73 C74.61 -1.83, 149.03 -0.37, 234.54 0.71 M235.38 1.35 C236.98 39.6, 235.02 81.4, 233.69 141.99 M234.05 -0.94 C234.95 31.04, 235.77 61.16, 234 139.97 M235.58 140.01 C151.42 142.11, 70.68 139.67, -1.07 141.66 M234.52 140.62 C186.23 140.11, 136.88 139.32, 0.31 140.67 M-0.53 140.8 C1.28 107.63, -0.39 76.92, -1.22 1.81 M0.55 139.54 C0.16 103.19, -0.48 64.57, 0.68 -0.44" stroke="#ffffff" stroke-width="1" fill="none"></path></g><g stroke-linecap="round"><g transform="translate(564.6004050689883 163.7415429200041) rotate(0 118.57725478242537 -0.036440934967259864)"><path d="M0.72 -0.24 C40.26 -0.17, 198.27 -0.03, 237.52 -0.13 M-0.37 -1.42 C39.08 -1.1, 197.8 1.1, 237.07 1.34" stroke="#ffffff" stroke-width="1" fill="none"></path></g></g><mask></mask><g stroke-linecap="round" transform="translate(575.1239801013587 153.0922334483374) rotate(0 4.59228441497828 4.592284414978252)"><path d="M9.18 4.59 C9.18 4.86, 9.16 5.13, 9.11 5.39 C9.07 5.65, 9 5.91, 8.91 6.16 C8.82 6.41, 8.7 6.66, 8.57 6.89 C8.44 7.12, 8.28 7.34, 8.11 7.54 C7.94 7.75, 7.75 7.94, 7.54 8.11 C7.34 8.28, 7.12 8.44, 6.89 8.57 C6.66 8.7, 6.41 8.82, 6.16 8.91 C5.91 9, 5.65 9.07, 5.39 9.11 C5.13 9.16, 4.86 9.18, 4.59 9.18 C4.33 9.18, 4.06 9.16, 3.79 9.11 C3.53 9.07, 3.27 9, 3.02 8.91 C2.77 8.82, 2.53 8.7, 2.3 8.57 C2.07 8.44, 1.84 8.28, 1.64 8.11 C1.44 7.94, 1.25 7.75, 1.07 7.54 C0.9 7.34, 0.75 7.12, 0.62 6.89 C0.48 6.66, 0.37 6.41, 0.28 6.16 C0.19 5.91, 0.12 5.65, 0.07 5.39 C0.02 5.13, 0 4.86, 0 4.59 C0 4.33, 0.02 4.06, 0.07 3.79 C0.12 3.53, 0.19 3.27, 0.28 3.02 C0.37 2.77, 0.48 2.53, 0.62 2.3 C0.75 2.07, 0.9 1.84, 1.07 1.64 C1.25 1.44, 1.44 1.25, 1.64 1.07 C1.84 0.9, 2.07 0.75, 2.3 0.62 C2.53 0.48, 2.77 0.37, 3.02 0.28 C3.27 0.19, 3.53 0.12, 3.79 0.07 C4.06 0.02, 4.33 0, 4.59 0 C4.86 0, 5.13 0.02, 5.39 0.07 C5.65 0.12, 5.91 0.19, 6.16 0.28 C6.41 0.37, 6.66 0.48, 6.89 0.62 C7.12 0.75, 7.34 0.9, 7.54 1.07 C7.75 1.25, 7.94 1.44, 8.11 1.64 C8.28 1.84, 8.44 2.07, 8.57 2.3 C8.7 2.53, 8.82 2.77, 8.91 3.02 C9 3.27, 9.07 3.53, 9.11 3.79 C9.16 4.06, 9.17 4.46, 9.18 4.59 C9.2 4.73, 9.2 4.46, 9.18 4.59" stroke="#ffffff" stroke-width="1" fill="none"></path></g><g stroke-linecap="round" transform="translate(593.9683053325227 153.0922334483374) rotate(0 4.59228441497828 4.592284414978252)"><path d="M9.18 4.59 C9.18 4.86, 9.16 5.13, 9.11 5.39 C9.07 5.65, 9 5.91, 8.91 6.16 C8.82 6.41, 8.7 6.66, 8.57 6.89 C8.44 7.12, 8.28 7.34, 8.11 7.54 C7.94 7.75, 7.75 7.94, 7.54 8.11 C7.34 8.28, 7.12 8.44, 6.89 8.57 C6.66 8.7, 6.41 8.82, 6.16 8.91 C5.91 9, 5.65 9.07, 5.39 9.11 C5.13 9.16, 4.86 9.18, 4.59 9.18 C4.33 9.18, 4.06 9.16, 3.79 9.11 C3.53 9.07, 3.27 9, 3.02 8.91 C2.77 8.82, 2.53 8.7, 2.3 8.57 C2.07 8.44, 1.84 8.28, 1.64 8.11 C1.44 7.94, 1.25 7.75, 1.07 7.54 C0.9 7.34, 0.75 7.12, 0.62 6.89 C0.48 6.66, 0.37 6.41, 0.28 6.16 C0.19 5.91, 0.12 5.65, 0.07 5.39 C0.02 5.13, 0 4.86, 0 4.59 C0 4.33, 0.02 4.06, 0.07 3.79 C0.12 3.53, 0.19 3.27, 0.28 3.02 C0.37 2.77, 0.48 2.53, 0.62 2.3 C0.75 2.07, 0.9 1.84, 1.07 1.64 C1.25 1.44, 1.44 1.25, 1.64 1.07 C1.84 0.9, 2.07 0.75, 2.3 0.62 C2.53 0.48, 2.77 0.37, 3.02 0.28 C3.27 0.19, 3.53 0.12, 3.79 0.07 C4.06 0.02, 4.33 0, 4.59 0 C4.86 0, 5.13 0.02, 5.39 0.07 C5.65 0.12, 5.91 0.19, 6.16 0.28 C6.41 0.37, 6.66 0.48, 6.89 0.62 C7.12 0.75, 7.34 0.9, 7.54 1.07 C7.75 1.25, 7.94 1.44, 8.11 1.64 C8.28 1.84, 8.44 2.07, 8.57 2.3 C8.7 2.53, 8.82 2.77, 8.91 3.02 C9 3.27, 9.07 3.53, 9.11 3.79 C9.16 4.06, 9.17 4.46, 9.18 4.59 C9.2 4.73, 9.2 4.46, 9.18 4.59" stroke="#ffffff" stroke-width="1" fill="none"></path></g><g stroke-linecap="round" transform="translate(613.6402431696358 153.91984605428522) rotate(0 4.59228441497828 4.592284414978252)"><path d="M9.18 4.59 C9.18 4.86, 9.16 5.13, 9.11 5.39 C9.07 5.65, 9 5.91, 8.91 6.16 C8.82 6.41, 8.7 6.66, 8.57 6.89 C8.44 7.12, 8.28 7.34, 8.11 7.54 C7.94 7.75, 7.75 7.94, 7.54 8.11 C7.34 8.28, 7.12 8.44, 6.89 8.57 C6.66 8.7, 6.41 8.82, 6.16 8.91 C5.91 9, 5.65 9.07, 5.39 9.11 C5.13 9.16, 4.86 9.18, 4.59 9.18 C4.33 9.18, 4.06 9.16, 3.79 9.11 C3.53 9.07, 3.27 9, 3.02 8.91 C2.77 8.82, 2.53 8.7, 2.3 8.57 C2.07 8.44, 1.84 8.28, 1.64 8.11 C1.44 7.94, 1.25 7.75, 1.07 7.54 C0.9 7.34, 0.75 7.12, 0.62 6.89 C0.48 6.66, 0.37 6.41, 0.28 6.16 C0.19 5.91, 0.12 5.65, 0.07 5.39 C0.02 5.13, 0 4.86, 0 4.59 C0 4.33, 0.02 4.06, 0.07 3.79 C0.12 3.53, 0.19 3.27, 0.28 3.02 C0.37 2.77, 0.48 2.53, 0.62 2.3 C0.75 2.07, 0.9 1.84, 1.07 1.64 C1.25 1.44, 1.44 1.25, 1.64 1.07 C1.84 0.9, 2.07 0.75, 2.3 0.62 C2.53 0.48, 2.77 0.37, 3.02 0.28 C3.27 0.19, 3.53 0.12, 3.79 0.07 C4.06 0.02, 4.33 0, 4.59 0 C4.86 0, 5.13 0.02, 5.39 0.07 C5.65 0.12, 5.91 0.19, 6.16 0.28 C6.41 0.37, 6.66 0.48, 6.89 0.62 C7.12 0.75, 7.34 0.9, 7.54 1.07 C7.75 1.25, 7.94 1.44, 8.11 1.64 C8.28 1.84, 8.44 2.07, 8.57 2.3 C8.7 2.53, 8.82 2.77, 8.91 3.02 C9 3.27, 9.07 3.53, 9.11 3.79 C9.16 4.06, 9.17 4.46, 9.18 4.59 C9.2 4.73, 9.2 4.46, 9.18 4.59" stroke="#ffffff" stroke-width="1" fill="none"></path></g><g stroke-opacity="0.9" fill-opacity="0.9" stroke-linecap="round" transform="translate(643.0690764918438 183.3951496326234) rotate(0 39.221343228059595 39.22134322805954)"><path d="M22.64 4.1 C29.18 0.42, 40.05 -1.38, 47.58 -0.08 C55.12 1.23, 62.88 5.95, 67.84 11.91 C72.81 17.88, 76.49 27.8, 77.35 35.71 C78.21 43.63, 76.68 52.83, 73.01 59.4 C69.34 65.96, 62.21 72.02, 55.32 75.11 C48.43 78.2, 39.08 79.34, 31.68 77.93 C24.29 76.52, 16.24 72.37, 10.97 66.65 C5.69 60.93, 0.9 51.5, 0.03 43.61 C-0.84 35.72, 1.48 26.28, 5.76 19.33 C10.04 12.37, 21.99 4.77, 25.71 1.87 C29.44 -1.03, 28.1 1.32, 28.08 1.91 M19.69 3.5 C25.68 -0.27, 35.79 -0.17, 43.54 1.09 C51.3 2.34, 60.41 5.96, 66.24 11.06 C72.06 16.15, 77.28 23.96, 78.48 31.66 C79.67 39.36, 76.84 50.44, 73.41 57.27 C69.97 64.11, 64.59 69.02, 57.87 72.66 C51.15 76.3, 40.94 80.02, 33.09 79.1 C25.25 78.18, 16.34 72.69, 10.82 67.13 C5.29 61.58, 1.09 53.1, -0.05 45.77 C-1.19 38.45, 0.41 29.95, 3.99 23.19 C7.56 16.43, 18.69 8.06, 21.43 5.19 C24.16 2.32, 20.18 5.64, 20.39 5.96" stroke="#ffffff" stroke-width="1" fill="none"></path></g><g stroke-linecap="round"><g transform="translate(692.7899066157916 213.1862481362618) rotate(0 -6.360749306860157 11.899382725336466)"><path d="M0 0 C-0.56 -0.13, -1.04 1.16, -3.36 -0.76 C-5.68 -2.68, -10.99 -10.31, -13.9 -11.52 C-16.82 -12.72, -19.31 -10.63, -20.85 -7.98 C-22.4 -5.34, -23.18 0.96, -23.16 4.36 C-23.13 7.75, -19.22 10.38, -20.69 12.38 C-22.16 14.37, -30.18 14.2, -31.99 16.32 C-33.81 18.43, -33.13 23.69, -31.59 25.05 C-30.04 26.42, -25.34 25.79, -22.73 24.51 C-20.13 23.24, -18.65 16.02, -15.97 17.4 C-13.28 18.79, -9.18 30.15, -6.65 32.81 C-4.11 35.47, -0.71 37.36, -0.76 33.36 C-0.81 29.36, -7.49 13.04, -6.94 8.81 C-6.38 4.58, 0.42 7.66, 2.55 7.98 C4.67 8.31, 3.4 10.31, 5.81 10.77 C8.21 11.24, 14.62 12.37, 16.96 10.77 C19.3 9.17, 21.37 2.62, 19.83 1.17 C18.3 -0.29, 9.38 4, 7.75 2.04 C6.12 0.08, 10.61 -8.6, 10.07 -10.58 C9.54 -12.55, 6.29 -11.3, 4.54 -9.81 C2.79 -8.33, 0.32 -3.33, -0.44 -1.69 C-1.19 -0.06, -0.07 -0.28, 0 0 M0 0 C-0.56 -0.13, -1.04 1.16, -3.36 -0.76 C-5.68 -2.68, -10.99 -10.31, -13.9 -11.52 C-16.82 -12.72, -19.31 -10.63, -20.85 -7.98 C-22.4 -5.34, -23.18 0.96, -23.16 4.36 C-23.13 7.75, -19.22 10.38, -20.69 12.38 C-22.16 14.37, -30.18 14.2, -31.99 16.32 C-33.81 18.43, -33.13 23.69, -31.59 25.05 C-30.04 26.42, -25.34 25.79, -22.73 24.51 C-20.13 23.24, -18.65 16.02, -15.97 17.4 C-13.28 18.79, -9.18 30.15, -6.65 32.81 C-4.11 35.47, -0.71 37.36, -0.76 33.36 C-0.81 29.36, -7.49 13.04, -6.94 8.81 C-6.38 4.58, 0.42 7.66, 2.55 7.98 C4.67 8.31, 3.4 10.31, 5.81 10.77 C8.21 11.24, 14.62 12.37, 16.96 10.77 C19.3 9.17, 21.37 2.62, 19.83 1.17 C18.3 -0.29, 9.38 4, 7.75 2.04 C6.12 0.08, 10.61 -8.6, 10.07 -10.58 C9.54 -12.55, 6.29 -11.3, 4.54 -9.81 C2.79 -8.33, 0.32 -3.33, -0.44 -1.69 C-1.19 -0.06, -0.07 -0.28, 0 0" stroke="#ffffff" stroke-width="1" fill="none"></path></g></g><mask></mask><g stroke-linecap="round"><g stroke-opacity="0.9" fill-opacity="0.9" transform="translate(644.1565658139714 220.74249751355725) rotate(0 38.248025822838144 -0.22492675767551873)"><path d="M-1.03 -0.21 C11.95 -0.14, 64.35 -0.55, 77.52 -0.41 M0.64 -1.37 C13.51 -1.05, 63.87 0.92, 76.69 0.92" stroke="#ffffff" stroke-width="1" fill="none"></path></g></g><mask></mask><g stroke-linecap="round"><g stroke-opacity="0.9" fill-opacity="0.9" transform="translate(654.3697486414219 193.54627671401468) rotate(0 26.9173614408337 4.824817583969121)"><path d="M0 0 C0.24 0.7, 0.16 2.9, 1.42 4.18 C2.67 5.46, 5.16 6.75, 7.53 7.69 C9.91 8.63, 12.19 9.43, 15.67 9.81 C19.16 10.2, 23.82 10.2, 28.42 10 C33.03 9.81, 39.38 9.7, 43.3 8.65 C47.23 7.61, 50.24 5.26, 51.99 3.73 C53.75 2.21, 53.53 0.22, 53.83 -0.48 M0 0 C0.24 0.7, 0.16 2.9, 1.42 4.18 C2.67 5.46, 5.16 6.75, 7.53 7.69 C9.91 8.63, 12.19 9.43, 15.67 9.81 C19.16 10.2, 23.82 10.2, 28.42 10 C33.03 9.81, 39.38 9.7, 43.3 8.65 C47.23 7.61, 50.24 5.26, 51.99 3.73 C53.75 2.21, 53.53 0.22, 53.83 -0.48" stroke="#ffffff" stroke-width="1" fill="none"></path></g></g><mask></mask><g stroke-opacity="0.9" fill-opacity="0.9" stroke-linecap="round" transform="translate(669.1950448162081 180.85655356322272) rotate(0 14.256628418289779 41.15127879323282)"><path d="M18 0.87 C20.6 3.04, 23.62 11.71, 25.3 19.34 C26.98 26.97, 28.32 38.01, 28.09 46.65 C27.86 55.29, 26.03 65.21, 23.92 71.19 C21.81 77.17, 18.34 81.84, 15.43 82.5 C12.52 83.17, 9 80.48, 6.45 75.18 C3.91 69.89, 0.89 59.56, 0.17 50.73 C-0.54 41.91, 0.64 30.25, 2.16 22.23 C3.68 14.21, 6.23 5.91, 9.3 2.61 C12.37 -0.68, 18.75 2.05, 20.59 2.45 C22.42 2.85, 20.69 4.21, 20.3 5 M12.15 0.9 C15.16 -0.11, 19.64 2.82, 22.4 7.67 C25.16 12.52, 28.11 21.34, 28.71 30 C29.3 38.66, 27.4 51.73, 25.99 59.63 C24.59 67.52, 23.01 73.66, 20.28 77.37 C17.55 81.09, 12.81 84.1, 9.63 81.91 C6.45 79.73, 2.93 71.76, 1.22 64.28 C-0.49 56.81, -1.16 45.61, -0.64 37.06 C-0.13 28.51, 1.89 19.06, 4.31 12.98 C6.73 6.91, 12.51 2.54, 13.87 0.63 C15.23 -1.28, 12.57 1.1, 12.48 1.52" stroke="#ffffff" stroke-width="1" fill="none"></path></g><g stroke-linecap="round"><g stroke-opacity="0.9" fill-opacity="0.9" transform="translate(657.1533335001925 251.82181412689587) rotate(0 26.9173614408337 -4.980988388442569)"><path d="M0 0 C1.26 -1.32, 4.92 -6.25, 7.53 -7.94 C10.15 -9.62, 12.19 -9.73, 15.67 -10.13 C19.16 -10.53, 23.82 -10.53, 28.42 -10.33 C33.03 -10.13, 39.38 -10.01, 43.3 -8.93 C47.23 -7.85, 50.24 -5.43, 51.99 -3.85 C53.75 -2.28, 53.53 -0.23, 53.83 0.5 M0 0 C1.26 -1.32, 4.92 -6.25, 7.53 -7.94 C10.15 -9.62, 12.19 -9.73, 15.67 -10.13 C19.16 -10.53, 23.82 -10.53, 28.42 -10.33 C33.03 -10.13, 39.38 -10.01, 43.3 -8.93 C47.23 -7.85, 50.24 -5.43, 51.99 -3.85 C53.75 -2.28, 53.53 -0.23, 53.83 0.5" stroke="#ffffff" stroke-width="1" fill="none"></path></g></g><mask></mask><g stroke-linecap="round"><g transform="translate(565.6179206859529 215.47161904441649) rotate(0 -33.79223265011785 0.9991857001170956)"><path d="M0.57 0.58 C-10.57 0.95, -56.01 1.83, -67.14 2.17 M-0.59 -0.17 C-11.87 -0.15, -57.17 0.12, -68.16 0.27" stroke="#ffffff" stroke-width="1" fill="none"></path></g><g transform="translate(565.6179206859529 215.47161904441649) rotate(0 -33.79223265011785 0.9991857001170956)"><path d="M-39.1 -10.47 C-47.12 -5.86, -54.16 -3.28, -66.3 1.2 M-40.65 -10.11 C-51.11 -6.72, -60.17 -1.84, -68.05 0.99" stroke="#ffffff" stroke-width="1" fill="none"></path></g><g transform="translate(565.6179206859529 215.47161904441649) rotate(0 -33.79223265011785 0.9991857001170956)"><path d="M-38.92 10.05 C-46.97 8.99, -54.06 5.91, -66.3 1.2 M-40.46 10.41 C-51.08 6.31, -60.21 3.71, -68.05 0.99" stroke="#ffffff" stroke-width="1" fill="none"></path></g></g><mask></mask><g transform="translate(295.61792068595287 262.5173088745415) rotate(0 99.609375 12.5)"><text x="0" y="0" font-family="Cascadia, Segoe UI Emoji" font-size="20px" fill="#ffffff" text-anchor="start" style="white-space: pre;" direction="ltr" dominant-baseline="text-before-edge">domain.com/api/**</text></g><g stroke-linecap="round" transform="translate(30.617920685952868 35.517308874541555) rotate(0 80.5 43)"><path d="M0 0 C0 0, 0 0, 0 0 M0 0 C0 0, 0 0, 0 0 M0.34 6.13 C0.63 5.09, 2.69 2.71, 4.76 1.02 M0.06 6.01 C1.21 5.15, 2.17 4.09, 4.7 0.11 M0.9 13.37 C3.15 7.84, 5.06 6.18, 11.97 0.09 M-0.2 12.37 C2.67 9.02, 5.71 4.42, 11.4 0.1 M-0.88 16.71 C5.33 12.45, 11.03 3.18, 16.24 -1.24 M-0.58 18.11 C6.25 11.97, 10.73 5.67, 15.51 0.47 M-1.67 24.65 C5.84 18, 11 11.75, 19.41 -0.79 M0.42 24.37 C8.99 14.52, 16.63 6.66, 21.19 0.75 M1.66 31.7 C7.96 21.71, 15.61 12.76, 24.36 -1.35 M-0.54 29.96 C8.38 21.94, 15.49 13, 26.59 -0.55 M-1.48 36.12 C10.55 22.11, 21.96 10.87, 30.2 -0.87 M-0.61 36.01 C9 26.18, 17.07 17.25, 32.22 -0.6 M-1.25 41.56 C14.69 27.28, 26.59 13.04, 37.32 -1.34 M-0.26 42.33 C11.94 27.72, 24.53 13.86, 37.39 0.87 M0.62 48.43 C16.99 32.01, 30.46 11.37, 44.52 0.28 M0.27 48.61 C13.2 34.63, 26.16 18.79, 42.04 -0.58 M-0.67 55.6 C12.15 40.94, 25.38 26.32, 45.75 -0.87 M0.07 55.12 C15.54 37.79, 29.12 20.89, 46.99 0.97 M-0.27 59.57 C21.47 37.9, 40.23 16.39, 51.27 -0.52 M-0.1 61.72 C13.63 44.36, 27.53 28.87, 53.71 -0.3 M0.81 68.24 C21.89 42.96, 45.25 15.49, 56.37 1.84 M-0.73 66.53 C13.39 50.63, 29.01 34.89, 58.66 1.04 M-0.3 72.19 C17.27 51.94, 34.95 32.42, 62.49 -0.04 M0.02 73.19 C24.99 43.87, 50.79 15.14, 63 -0.34 M1.63 78.08 C23.85 49.89, 49.99 19.89, 70 -0.04 M0.86 79.05 C21.88 53.85, 45.09 27.23, 68.9 0.4 M-1.53 84.35 C30.96 52.24, 55.43 21.16, 75.29 1.34 M-0.46 84.91 C17.17 65.78, 31.93 48.52, 75.35 0.28 M2.01 87.36 C20.25 67.46, 39.17 44.72, 79.55 0.08 M2.7 87.95 C33.5 53.41, 63.76 19.17, 78.4 -0.57 M9.95 86.43 C28.71 66.09, 49.86 40.58, 85.88 1.67 M7.46 88.76 C29.28 66.27, 48.72 43.4, 84.95 -0.91 M12.53 88.95 C27.46 67.12, 47.37 48.98, 92.02 0.19 M12.65 89.29 C32.3 66.93, 50.49 45.65, 89.04 0.56 M17.01 87.35 C37.14 67.92, 51.65 51.2, 95.54 -0.62 M18.87 87.77 C44.94 56.45, 70.8 26.17, 95.65 -0.84 M23.73 87.24 C43.51 64.6, 63.05 42.3, 102.51 -0.32 M23.14 87.75 C46.96 59.71, 70.98 33.24, 100.93 -0.75 M28.61 87.15 C49.29 64.29, 72.44 36.44, 104.69 -0.68 M29.02 87.75 C53.49 59.67, 78.63 30.67, 106.03 0.11 M33.14 87.92 C60.13 57.22, 87.94 28.54, 112.21 1.36 M35.18 87.52 C50.73 68.19, 67.55 49.77, 111.36 -0.98 M40.36 87.99 C54.31 69.24, 73.93 49.31, 118.14 -0.5 M38.96 89.26 C66.3 59.05, 92.15 27.72, 115.72 -0.14 M43.37 89.15 C72.98 55.29, 102.56 22.61, 122.41 1.42 M45.49 88.32 C60.86 69.76, 78.22 50.73, 121.84 0.43 M50.02 87.71 C72.02 63.48, 90.41 40.84, 125.8 2.08 M49.97 88.19 C76.3 58.37, 102.7 27.12, 127 0.62 M56.12 87.46 C76.24 66.48, 96.51 41.96, 132.47 -0.51 M55.48 88.43 C80.43 61.4, 103.53 35.38, 133.07 0.1 M62.09 86.8 C77.86 68.88, 99.37 45.86, 136.67 -0.13 M61.2 87.7 C88.82 54.84, 118.63 22.3, 137.89 0.39 M66.2 87.78 C82.68 67.52, 103.61 47.82, 141.89 0.59 M66.26 87.67 C96.4 53.73, 124.24 21.89, 143.96 -0.31 M73.18 87.15 C91.63 68.32, 108.26 46.31, 147.54 -0.66 M71.99 88.03 C95.46 60.73, 119.34 33.28, 147.79 0.98 M75.5 89.46 C106.5 57.56, 134.26 26.73, 152.21 1.13 M77.67 88.42 C95.36 66.97, 114.8 46.6, 154.62 -1.1 M81.97 90.07 C103.53 65.46, 126 39.33, 160.27 -0.62 M82.88 89.43 C106.42 61.84, 129.7 35.18, 159.77 -0.25 M87 88.26 C101.08 68.97, 117.98 52.08, 163.79 0.47 M87.23 88.57 C116.49 55.19, 145.46 22.93, 164.05 1.98 M91.24 90.27 C116.78 63.01, 139.07 37.22, 161.24 8.82 M92.64 89.23 C115.59 62.33, 138.63 35.68, 163.08 8.15 M98.8 86.34 C120.77 58.2, 145.01 30.39, 163.86 13.65 M99.16 88.61 C113.06 72.73, 127.1 56.2, 163.25 13.56 M101.89 89.85 C118.3 73.73, 133.23 55.63, 163.14 18.33 M103.22 88.78 C117.26 72.29, 132.12 56.19, 163.83 20.6 M110.06 86.27 C129.77 65.48, 149.77 40.82, 162.75 27.24 M109.41 88.54 C122.68 71.35, 135.54 56.08, 162.43 25.4 M114.86 88.34 C125.08 76.66, 134.95 61.92, 163.05 31.49 M114.77 88.49 C130.41 69.81, 145.87 51.24, 162.15 32.56 M119.05 89.02 C136.14 68.11, 151.09 52.49, 161.76 40.05 M118.59 88.91 C132.33 71.94, 146.08 57.03, 163.85 38.14 M125.24 88.66 C138.48 72.72, 152.68 54.05, 162.54 45.54 M124.66 88.81 C139.47 71.88, 152.3 55.83, 163.29 44.34 M129.14 87.97 C141.3 72.75, 153.94 60.41, 162.91 51.53 M131.06 87.83 C141.46 76.62, 150.63 65.21, 162.65 50.73 M136.19 87.14 C143.65 77.71, 152.75 69.05, 164.26 57.9 M134.46 89.25 C145.64 78.11, 153.8 66.05, 163.16 56.51 M142.78 86.9 C145.98 80.96, 157.1 72.9, 162.34 60.56 M139.86 87.94 C146.62 81.31, 153.56 74.11, 163.16 62.16 M144.95 87.54 C150.51 81.76, 153.29 79.93, 161.98 68.62 M144.92 87.36 C152.5 81.19, 158.3 73.62, 163.42 69.46 M150.87 86.95 C156.69 84.82, 159.23 77.77, 163.51 76.04 M151.03 88.26 C155.48 84.63, 158.44 80.15, 163.19 75.19 M156.66 87.64 C158.52 84.83, 161.97 81.54, 162.11 80.1 M156.73 88.01 C158.97 85.5, 160.37 83.59, 163.04 81.06" stroke="#012b3e" stroke-width="0.5" fill="none"></path><path d="M0.03 -1.73 C32.69 0.47, 67.97 -1.37, 159.47 -0.26 M-0.67 0.74 C44.67 1.38, 90.97 0.82, 160.73 -0.79 M161.11 1.94 C158.5 27.28, 159.05 51.36, 159.34 84.73 M160.94 0.57 C160.3 28.48, 161.45 59.12, 161.07 86.1 M162.36 86.83 C109.09 87.62, 57.5 85.54, 1.93 86.78 M160.97 86.77 C121.08 85.89, 82.48 85.59, 0.47 85.33 M-0.31 87.9 C0.44 53.46, -2.28 17.14, -1.87 0.47 M-0.18 85.75 C-1.53 51.95, -1.63 18.64, 0.83 -0.27" stroke="#ffffff" stroke-width="1" fill="none"></path></g><g transform="translate(58.88354568595287 66.51730887454156) rotate(0 52.734375 12.5)"><text x="52.734375" y="0" font-family="Cascadia, Segoe UI Emoji" font-size="20px" fill="#ffffff" text-anchor="middle" style="white-space: pre;" direction="ltr" dominant-baseline="text-before-edge">Service A</text></g><g stroke-linecap="round"><g transform="translate(15.199882201182902 15.028541239802678) rotate(0 20.582044923464196 22.448711187348053)" fill-rule="evenodd"><path d="M1.06 0.88 L-0.71 47.01 L1.58 48.18 L7.79 50.42 L21.08 50.61 L32.26 47.5 L38.8 45.58 L40.32 0.7 L37.15 -1.74 L21.8 -4.62 L5.6 -2.29 L-0.44 -0.81" stroke="none" stroke-width="0" fill="#012b3e" fill-rule="evenodd"></path><path d="M-1.06 1.13 C-1.04 7.65, -1.12 32.41, -0.92 39.83 C-0.72 47.25, -0.32 44.48, 0.13 45.65 C0.57 46.82, 0.07 46.15, 1.75 46.84 C3.43 47.54, 6.85 49.46, 10.23 49.83 C13.6 50.2, 18.06 49.41, 22.01 49.07 C25.96 48.74, 30.7 48.14, 33.92 47.83 C37.15 47.52, 40.18 47.72, 41.36 47.21 C42.53 46.69, 40.98 45.9, 40.98 44.73 C40.97 43.57, 41.05 47.2, 41.31 40.22 C41.58 33.24, 42.46 9.61, 42.58 2.85 C42.7 -3.9, 42.91 0.57, 42.04 -0.3 C41.18 -1.17, 38.96 -1.93, 37.37 -2.36 C35.77 -2.79, 35.28 -2.56, 32.49 -2.9 C29.7 -3.24, 24.24 -4.19, 20.62 -4.4 C17 -4.61, 13.89 -4.47, 10.75 -4.17 C7.61 -3.87, 3.39 -3.4, 1.77 -2.6 C0.14 -1.79, 1.34 0.02, 1.01 0.65 C0.69 1.28, -0.12 1.47, -0.16 1.18 M0.58 0.68 C1.05 7.28, 1.43 33.87, 1.24 41.02 C1.04 48.17, -0.67 42.46, -0.58 43.59 C-0.48 44.73, 0.18 47.23, 1.79 47.82 C3.41 48.41, 5.51 47.1, 9.1 47.12 C12.7 47.13, 19.15 47.47, 23.37 47.92 C27.6 48.37, 31.57 49.93, 34.48 49.82 C37.38 49.71, 39.42 48.34, 40.81 47.26 C42.19 46.18, 42.57 44.66, 42.77 43.34 C42.96 42.02, 42.48 45.96, 41.99 39.33 C41.51 32.7, 40.01 10.24, 39.87 3.55 C39.72 -3.13, 41.57 0.34, 41.1 -0.8 C40.62 -1.94, 38.59 -2.95, 37 -3.29 C35.42 -3.64, 34.21 -2.59, 31.58 -2.88 C28.95 -3.17, 25.06 -4.98, 21.23 -5.03 C17.4 -5.08, 12.05 -3.63, 8.6 -3.17 C5.15 -2.72, 1.89 -3.06, 0.51 -2.3 C-0.88 -1.54, 0.63 1.26, 0.27 1.37 C-0.08 1.49, -1.87 -1.41, -1.62 -1.61" stroke="#ffffff" stroke-width="1" fill="none"></path></g></g><mask></mask><g stroke-linecap="round"><g transform="translate(14.617361528211404 45.829610942014455) rotate(0 21.23244373593198 1.94695146793876)"><path d="M1.13 -1.06 C1.08 -0.55, -0.44 1.28, 0.44 1.96 C1.31 2.63, 4.47 2.49, 6.37 2.99 C8.27 3.5, 9.08 4.76, 11.85 4.98 C14.62 5.2, 19.44 4.53, 22.99 4.3 C26.55 4.08, 30.45 3.93, 33.2 3.64 C35.95 3.34, 37.98 3.25, 39.5 2.54 C41.02 1.84, 41.96 -0.1, 42.3 -0.59 M0.27 1 C0.55 1.81, 1.87 3.04, 2.8 3.56 C3.74 4.07, 4.36 4.24, 5.89 4.11 C7.42 3.98, 9.28 2.68, 11.97 2.77 C14.67 2.86, 18.33 4.69, 22.08 4.65 C25.83 4.6, 31.54 3, 34.49 2.51 C37.45 2.01, 38.62 2.28, 39.82 1.67 C41.01 1.07, 41.66 -0.54, 41.67 -1.13" stroke="#ffffff" stroke-width="1" fill="none"></path></g></g><mask></mask><g stroke-linecap="round"><g transform="translate(14.705401204004488 30.04849054965368) rotate(0 20.290778528563806 2.46825175037624)"><path d="M-1.06 -0.66 C-0.68 -0.45, 0.13 1.76, 1.21 2.39 C2.29 3.02, 3.5 2.64, 5.43 3.14 C7.35 3.63, 10.03 5.2, 12.76 5.37 C15.5 5.54, 18.43 4.54, 21.84 4.18 C25.26 3.81, 30.05 3.48, 33.25 3.18 C36.45 2.88, 39.71 2.96, 41.03 2.39 C42.35 1.82, 41.11 0.33, 41.17 -0.24 M0.59 1.61 C0.91 1.97, -0.32 0.11, 0.33 0.56 C0.97 1.01, 2.29 3.86, 4.46 4.33 C6.63 4.8, 10.72 3.35, 13.36 3.37 C16 3.39, 16.79 4.1, 20.32 4.45 C23.86 4.8, 31.55 5.97, 34.58 5.47 C37.6 4.97, 37.59 2.45, 38.48 1.44 C39.38 0.43, 39.14 -0.49, 39.94 -0.6" stroke="#ffffff" stroke-width="1" fill="none"></path></g></g><mask></mask><g stroke-linecap="round" transform="translate(13.618377347696196 10.852333659216043) rotate(0 20.618026217060844 4.169840686620262)"><path d="M22.8 -0.07 C26.95 0.13, 32.24 1.13, 35.2 1.81 C38.16 2.5, 40.09 3.24, 40.57 4.04 C41.04 4.84, 40.58 5.95, 38.05 6.62 C35.52 7.3, 29.83 8, 25.39 8.11 C20.95 8.22, 15.33 7.7, 11.41 7.27 C7.48 6.85, 3.46 6.43, 1.83 5.58 C0.19 4.73, 0.37 2.84, 1.62 2.16 C2.86 1.47, 5.04 1.85, 9.29 1.47 C13.54 1.09, 23.71 0.16, 27.1 -0.12 C30.49 -0.4, 30.03 -0.38, 29.65 -0.23 M12.97 0.75 C16.7 0.2, 22.7 -0.15, 27.16 -0.03 C31.61 0.1, 37.59 0.53, 39.69 1.48 C41.79 2.42, 40.77 4.64, 39.75 5.65 C38.74 6.67, 36.68 7.07, 33.6 7.58 C30.53 8.09, 25.42 8.96, 21.31 8.71 C17.19 8.47, 12.51 6.94, 8.92 6.09 C5.32 5.25, 0.89 4.06, -0.26 3.64 C-1.42 3.22, -0.12 4.34, 2.01 3.57 C4.13 2.79, 10.55 -0.58, 12.47 -1.01 C14.39 -1.43, 13.1 0.95, 13.53 1.03" stroke="none" stroke-width="0" fill="#012b3e"></path><path d="M25.88 0.99 C30.07 1.14, 34.52 1.01, 37.05 1.49 C39.58 1.97, 41.17 2.86, 41.06 3.88 C40.96 4.91, 39.45 6.92, 36.4 7.65 C33.35 8.39, 27.28 8.4, 22.74 8.29 C18.21 8.17, 12.67 7.53, 9.19 6.96 C5.71 6.4, 3.01 5.68, 1.88 4.92 C0.75 4.16, 0.99 3.18, 2.41 2.41 C3.82 1.63, 6.23 0.58, 10.38 0.27 C14.54 -0.03, 24.05 0.56, 27.34 0.59 C30.64 0.61, 30.1 0.47, 30.16 0.41 M21.37 -0.19 C25.99 -0.3, 32.25 1.24, 35.27 1.98 C38.3 2.71, 38.86 3.6, 39.51 4.22 C40.16 4.85, 40.91 5.17, 39.18 5.74 C37.45 6.32, 33.23 7.49, 29.12 7.66 C25 7.83, 18.66 7.13, 14.48 6.77 C10.3 6.41, 6.24 6.28, 4.05 5.5 C1.85 4.72, 0.86 3.05, 1.28 2.09 C1.7 1.13, 3.48 0.23, 6.58 -0.25 C9.68 -0.74, 17.38 -1, 19.87 -0.84 C22.36 -0.67, 21.27 0.29, 21.51 0.71" stroke="#ffffff" stroke-width="1" fill="none"></path></g><g stroke-linecap="round" transform="translate(47.26075007827308 22.41423291329798) rotate(0 3.0217693829154655 3.2795448119070443)"><path d="M2.59 -0.51 C3.34 -0.67, 4.61 -0.74, 5.18 -0.09 C5.75 0.55, 5.91 2.54, 6 3.35 C6.1 4.16, 6.02 4.26, 5.73 4.77 C5.43 5.28, 4.91 6.09, 4.23 6.4 C3.56 6.72, 2.34 6.75, 1.7 6.67 C1.06 6.59, 0.79 6.55, 0.38 5.92 C-0.04 5.3, -0.99 3.59, -0.78 2.93 C-0.57 2.28, 1.02 2.34, 1.64 2 C2.26 1.66, 2.71 1.31, 2.95 0.88 C3.19 0.46, 2.99 -0.35, 3.07 -0.56 M3.91 -0.02 C4.33 0.3, 4.76 2.23, 5.03 2.56 C5.29 2.88, 5.31 1.57, 5.52 1.93 C5.72 2.28, 6.52 3.87, 6.26 4.67 C5.99 5.46, 4.63 6.24, 3.92 6.69 C3.21 7.14, 2.81 7.83, 1.97 7.35 C1.13 6.87, -0.59 4.77, -1.12 3.83 C-1.64 2.9, -1.86 2.4, -1.2 1.74 C-0.55 1.08, 2.26 0.1, 2.82 -0.14 C3.38 -0.38, 1.94 0.06, 2.15 0.3 C2.37 0.54, 4.1 1.2, 4.1 1.29" stroke="none" stroke-width="0" fill="#012b3e"></path><path d="M3.42 -0.03 C4.02 -0.3, 4.06 -0.18, 4.38 0.32 C4.71 0.82, 5.01 2.32, 5.35 2.95 C5.7 3.59, 6.62 3.62, 6.47 4.13 C6.33 4.64, 5.26 5.44, 4.47 6 C3.69 6.56, 2.47 7.48, 1.76 7.5 C1.06 7.51, 0.54 6.96, 0.23 6.09 C-0.08 5.23, -0.17 3.18, -0.12 2.3 C-0.06 1.42, -0.04 1.12, 0.56 0.81 C1.16 0.51, 2.96 0.43, 3.46 0.44 C3.96 0.46, 3.71 0.93, 3.59 0.91 M1.76 1.68 C2.28 1.04, 4.26 -1.31, 5.04 -1.21 C5.82 -1.11, 6.34 1.21, 6.42 2.27 C6.5 3.33, 5.81 4.45, 5.51 5.17 C5.2 5.89, 5.2 6.15, 4.57 6.59 C3.94 7.03, 2.43 7.76, 1.73 7.8 C1.02 7.83, 0.84 7.57, 0.34 6.8 C-0.17 6.03, -1.12 4.13, -1.32 3.17 C-1.52 2.2, -1.26 1.34, -0.85 1.01 C-0.44 0.68, 0.55 1.18, 1.12 1.19 C1.7 1.2, 2.23 1.21, 2.61 1.06" stroke="#ffffff" stroke-width="1" fill="none"></path></g><g stroke-linecap="round" transform="translate(47.26075007827308 36.811422303817295) rotate(0 3.0217693829154655 3.2795448119070443)"><path d="M1.89 0.55 C2.44 0.4, 3 0.23, 3.82 0.48 C4.64 0.72, 6.45 1.4, 6.82 2.01 C7.2 2.63, 6.4 3.62, 6.06 4.19 C5.72 4.77, 5.34 5.11, 4.79 5.47 C4.24 5.82, 3.33 6.44, 2.78 6.31 C2.23 6.18, 1.95 5.03, 1.46 4.67 C0.98 4.31, -0.16 4.79, -0.13 4.17 C-0.1 3.55, 1.01 1.77, 1.64 0.97 C2.28 0.17, 3.54 -0.54, 3.67 -0.65 C3.81 -0.76, 2.72 0.07, 2.45 0.29 M3.88 -0.09 C4.75 -0.09, 6.89 0.22, 7.04 1 C7.19 1.78, 5.21 3.74, 4.77 4.57 C4.33 5.4, 4.66 5.59, 4.42 5.98 C4.18 6.37, 3.69 7.17, 3.35 6.93 C3 6.69, 3.01 5.26, 2.35 4.54 C1.7 3.83, -0.18 2.86, -0.6 2.63 C-1.02 2.4, -0.48 3.77, -0.17 3.16 C0.13 2.54, 0.5 -0.66, 1.23 -1.05 C1.96 -1.44, 3.56 0.81, 4.2 0.82 C4.85 0.82, 5.09 -0.88, 5.11 -1" stroke="none" stroke-width="0" fill="#012b3e"></path><path d="M2.64 -0.17 C3.13 -0.51, 3.91 -0.48, 4.58 0.05 C5.26 0.58, 6.53 2.26, 6.68 3.01 C6.83 3.77, 5.88 4.18, 5.46 4.6 C5.05 5.02, 4.56 5.3, 4.2 5.54 C3.83 5.77, 3.76 6.08, 3.28 6.01 C2.8 5.93, 2.01 5.6, 1.31 5.08 C0.61 4.55, -0.8 3.49, -0.93 2.86 C-1.06 2.24, -0.21 1.82, 0.53 1.33 C1.28 0.83, 2.91 0.16, 3.53 -0.11 C4.14 -0.38, 4.28 -0.25, 4.2 -0.3 M5.76 1.32 C5.96 1.72, 4.22 2.29, 4.36 2.68 C4.5 3.06, 6.31 3.14, 6.6 3.62 C6.9 4.1, 6.63 5.27, 6.12 5.54 C5.62 5.81, 4.26 5.34, 3.59 5.22 C2.93 5.1, 2.56 5.34, 2.13 4.84 C1.7 4.34, 1.38 2.98, 1 2.21 C0.61 1.43, -0.27 0.66, -0.18 0.17 C-0.08 -0.32, 0.66 -0.85, 1.57 -0.72 C2.48 -0.59, 4.69 0.53, 5.27 0.93 C5.85 1.32, 5.28 1.66, 5.05 1.64" stroke="#ffffff" stroke-width="1" fill="none"></path></g><g stroke-linecap="round" transform="translate(47.26075007827308 52.459254206286374) rotate(0 3.0217693829154655 3.2795448119070443)"><path d="M2.94 -0.59 C3.57 -0.5, 4.11 0.93, 4.58 1.41 C5.06 1.89, 5.59 1.77, 5.79 2.3 C5.98 2.82, 6.05 3.88, 5.75 4.55 C5.44 5.22, 4.53 5.86, 3.96 6.3 C3.39 6.75, 2.99 7.39, 2.32 7.22 C1.65 7.05, 0.2 5.77, -0.05 5.28 C-0.31 4.8, 0.72 4.84, 0.8 4.3 C0.88 3.77, 0.2 2.91, 0.42 2.08 C0.63 1.24, 1.61 -0.25, 2.07 -0.71 C2.54 -1.17, 3.06 -0.96, 3.22 -0.68 M2.63 1.47 C3.08 1.2, 3.63 -0.65, 4.33 -0.58 C5.03 -0.5, 6.55 0.99, 6.83 1.92 C7.1 2.84, 6.36 4.05, 5.99 4.98 C5.61 5.91, 5.43 7.35, 4.57 7.48 C3.7 7.61, 1.7 6.23, 0.79 5.74 C-0.11 5.25, -0.98 5.12, -0.87 4.54 C-0.77 3.95, 1.33 2.79, 1.42 2.23 C1.51 1.66, -0.68 1.31, -0.32 1.14 C0.03 0.97, 3.21 1.29, 3.54 1.19 C3.87 1.09, 1.83 0.86, 1.66 0.53" stroke="none" stroke-width="0" fill="#012b3e"></path><path d="M3.67 -0.01 C4.03 0.27, 4.51 1.64, 5 2.19 C5.5 2.75, 6.64 2.75, 6.65 3.3 C6.67 3.85, 5.79 4.79, 5.1 5.5 C4.41 6.2, 3.26 7.35, 2.54 7.55 C1.83 7.74, 1.23 7.41, 0.8 6.67 C0.37 5.94, 0.08 4, -0.03 3.14 C-0.14 2.28, -0.23 1.92, 0.13 1.52 C0.49 1.12, 1.47 0.81, 2.12 0.72 C2.78 0.64, 3.73 1.04, 4.04 0.99 C4.36 0.95, 4.13 0.36, 4.01 0.43 M4.88 -1.27 C5.64 -1.26, 6.22 1.07, 6.33 2.11 C6.44 3.16, 5.8 4.26, 5.53 4.99 C5.26 5.72, 5.3 6, 4.7 6.47 C4.09 6.93, 2.6 7.71, 1.9 7.79 C1.19 7.86, 1 7.65, 0.47 6.91 C-0.06 6.17, -1.05 4.3, -1.29 3.35 C-1.52 2.39, -1.31 1.52, -0.93 1.18 C-0.56 0.83, 0.06 1.31, 0.96 1.26 C1.87 1.22, 3.79 1.14, 4.49 0.92 C5.18 0.69, 5.21 -0.05, 5.13 -0.07" stroke="#ffffff" stroke-width="1" fill="none"></path></g><g transform="translate(41.61792068595287 122.51730887454156) rotate(0 68.4755859375 6.961382113821145)"><text x="0" y="0" font-family="Cascadia, Segoe UI Emoji" font-size="11.13821138211382px" fill="#ffffff" text-anchor="start" style="white-space: pre;" direction="ltr" dominant-baseline="text-before-edge">a.internal.domain.com</text></g><g stroke-linecap="round" transform="translate(30.117920685952868 170.51730887454156) rotate(0 80.5 43)"><path d="M0 0 C0 0, 0 0, 0 0 M0 0 C0 0, 0 0, 0 0 M-0.54 6.52 C0.46 4.55, 2.29 3.39, 4.35 0.08 M-0.31 6.49 C0.95 4.96, 2.08 3.55, 4.71 0.08 M1.3 10.94 C3.02 7.78, 5.78 6.2, 11.54 -0.66 M0.33 11.54 C3.52 9.21, 6.67 5.67, 10.74 0.26 M-1.49 17.94 C6.09 13.73, 8.41 8.83, 17.28 1.11 M0.8 17.98 C3.5 13.02, 8.02 8.04, 14.67 -0.14 M-1.5 25.97 C6.09 14.36, 15.44 7.89, 20.62 -0.47 M0.08 23.94 C7 16.26, 15.61 6.61, 21.24 -0.21 M1.48 30.24 C3.88 23.29, 11.16 17.34, 27.13 0.07 M-0.71 31.34 C10.55 19.01, 20.83 8.47, 25.32 0.82 M-0.81 37.97 C9.16 25.51, 20.96 12.45, 30.06 -1.06 M0.4 37.29 C7.41 29.88, 13.7 21.14, 32.14 -0.32 M-0.91 43.48 C8.55 31.75, 21.36 20.48, 37.23 0 M-0.07 43.22 C11.31 28.85, 24.61 16.5, 36.61 1.13 M-1.61 49.49 C11.44 37.15, 20.82 25.79, 42.19 1.82 M-0.55 49.1 C11.73 35.92, 23.68 21.77, 42.07 -1.04 M-1.46 54.92 C13.18 41.92, 23.21 26.53, 46.97 -1.26 M-0.25 55.15 C14.24 39.89, 26.24 24.35, 47.62 -0.09 M-0.04 59.99 C13.42 45.7, 28.33 30.36, 53.21 -0.05 M0.09 61.8 C12.3 44.77, 26.38 29.34, 52.84 0.66 M0.52 65.98 C13.54 54.21, 24.7 36.22, 56.86 -1.46 M0.34 67.45 C20.93 41.42, 42 17.57, 59.13 -0.18 M1.53 72.6 C23.73 49.5, 41.46 23.38, 63.39 -1.44 M-0.46 72.62 C24.23 45.12, 49.22 16.37, 64.45 -1.16 M-0.26 81.26 C17.47 58.01, 36.98 38.71, 70.47 0.07 M-0.55 79.25 C18.84 57.08, 37.63 35.97, 68.61 0.07 M-0.2 84.87 C20.24 64.17, 36.74 44.33, 75.12 -1.76 M-0.29 85.34 C18.88 64.36, 36.32 45.52, 74.09 -0.38 M1.66 87.96 C18.72 67.96, 37.91 50.65, 80.47 0.39 M2.69 88.96 C17.85 70.53, 34.24 52.34, 79.25 -0.58 M8.44 89.68 C31.13 64.77, 50.04 38.31, 86.87 1.03 M8.08 88.21 C25.69 67.9, 41.65 49.84, 85.18 0.14 M15.14 86.95 C36.1 64.22, 55.49 41.43, 90.63 -1.02 M13.15 88.26 C39.9 55.54, 68.73 24.97, 90.94 -0.81 M19.09 89.41 C46.01 58.75, 70.07 26.64, 95.19 0.35 M19.75 87.16 C42.58 61.82, 65.72 34.55, 96.34 -0.37 M22 89.58 C41.89 67.86, 63.32 44.46, 101.82 -0.3 M24.01 87.97 C43.44 65.76, 62.48 43.7, 101.25 0.21 M30.47 88.59 C48.45 64.47, 68.81 41.39, 104.76 -0.97 M29.44 89.36 C53.18 60.81, 76.67 31.56, 106.36 0.31 M36.01 87.56 C50.55 68.87, 69.13 52.42, 109.99 0.86 M34.52 88.9 C51.44 70.33, 66.51 51.84, 110.48 -0.1 M40.96 88.88 C60.27 65.06, 84.42 38.86, 117.67 0.06 M39.21 89.27 C58.57 67.31, 76.03 45.03, 116.63 1.26 M45.06 88.01 C61.5 66.79, 80 48.34, 120.19 1.14 M45.13 87.93 C63.41 67.84, 83.2 44.73, 122.63 -0.8 M52.09 90.59 C75.82 57.23, 104.17 23.36, 126.08 1.59 M50.82 89.15 C76.1 59.32, 99.89 31.27, 126.66 0.31 M57.12 87.44 C86.19 53.73, 113.76 21.44, 132.58 1.64 M56.51 88.95 C85.83 53.11, 113.78 20.03, 132.39 -0.39 M61.13 87.69 C85.46 61.35, 109.8 34.58, 138.28 -0.59 M61.42 89.07 C87.95 58.92, 113.64 27.45, 137.23 -0.4 M66.25 89.79 C94.32 54.69, 126.2 17.97, 144.37 -0.13 M66.52 87.93 C95.48 55.48, 124.58 22.49, 144.16 0.16 M70.44 86.58 C89.47 70.04, 102.82 50.97, 147.29 1.98 M71.84 88.62 C98.58 56.7, 124.24 27.02, 147.97 -0.43 M78.62 88.37 C105.05 53.48, 131.95 21.23, 151.91 -0.27 M77.22 87.85 C103.76 60.15, 129.12 29.48, 153.05 0.44 M81.47 88.02 C98.19 70.84, 113.29 51.07, 160.25 1.17 M81.62 87.95 C108.14 57.79, 134.32 28.49, 159.7 0.71 M86.48 87.95 C109.77 61.58, 132.62 37.16, 163.32 3.05 M87.88 87.78 C109.08 62.54, 133.75 35.98, 162.55 1.09 M92.77 89.23 C115.64 62.82, 141.57 33.67, 161.82 5.8 M92.01 88.77 C121.39 57.58, 148.32 27.16, 162.9 8.09 M98.18 86.65 C118.37 65.64, 139.92 41.46, 162.57 14.36 M97.96 87.81 C120.28 62.86, 142.39 38.89, 161.65 13.62 M101.99 89.78 C121.42 69.55, 139.53 45.88, 163.94 21.52 M102.95 89.31 C119.33 69.25, 136.9 50.22, 162.42 20.29 M108.15 90.02 C123.49 74.55, 135.91 59.3, 161.78 24.73 M108.16 88.08 C129.76 63.42, 150.45 39.59, 162.05 27.17 M115.87 89.69 C125.81 72.48, 138.45 61.94, 163.95 29.88 M114.09 89.36 C128.8 71.07, 142.82 55.04, 162.66 31.4 M118.93 89.04 C129.77 75.41, 143.37 62.21, 161 36.43 M119.33 87.77 C128.74 78.7, 137.64 67.61, 163.01 38.26 M124.24 87.37 C132.92 80.3, 140.61 68.61, 160.71 45.14 M123.8 89.27 C134.56 77.23, 144.34 65.82, 162.58 44.84 M131.15 86.06 C136.27 78.07, 146.09 68.74, 162.03 51.42 M129.57 88.13 C137.96 79.75, 146.3 70.91, 162.15 50.24 M134.03 89.63 C142.9 80.47, 152.63 70.58, 163.11 56.67 M136.12 88.92 C140.5 80.82, 147.63 74.58, 163.36 56.83 M141.53 88.84 C150.83 77.72, 159.86 69.38, 161.77 62.04 M141.15 87.44 C148.8 77.39, 158.36 69.18, 163.8 62.95 M147.24 89.71 C152.03 82.82, 153.91 76.14, 164.2 67.53 M145.81 88.73 C149.53 84.2, 152.92 78.28, 163.37 67.89 M152.09 89.27 C151.98 85.24, 157.67 82.21, 161.65 73.93 M150.89 88.77 C155.79 84.49, 159.04 79.42, 163.26 74.63 M155.72 88.76 C157.51 85.67, 158.73 85.18, 162.39 81.09 M156.9 88.5 C158.51 85.09, 161.05 82.41, 163.45 80.79" stroke="#012b3e" stroke-width="0.5" fill="none"></path><path d="M-0.11 -0.54 C42.29 0.8, 83.75 -1.8, 159.47 1.59 M0.67 0.25 C31.96 -0.37, 65 -0.44, 161.35 0.48 M160.13 0.67 C162.76 33.08, 160.83 66.25, 159.02 85.16 M160.48 -0.99 C161.48 29.51, 161.34 57.97, 161.71 85.62 M159.98 84.72 C127.25 85.28, 93.74 88.66, 0.56 85.09 M160.23 86.84 C117.9 86.71, 74.95 86.71, -0.58 85.03 M-1.54 87.71 C-1.62 57.05, 1.67 27.88, -0.1 0.3 M0.55 86.53 C-0.69 58.52, -0.75 30.23, -0.81 0.83" stroke="#ffffff" stroke-width="1" fill="none"></path></g><g transform="translate(58.38354568595287 201.51730887454156) rotate(0 52.734375 12.5)"><text x="52.734375" y="0" font-family="Cascadia, Segoe UI Emoji" font-size="20px" fill="#ffffff" text-anchor="middle" style="white-space: pre;" direction="ltr" dominant-baseline="text-before-edge">Service B</text></g><g stroke-linecap="round"><g transform="translate(11.668765697110132 150.0049145057188) rotate(0 20.742050688972853 22.94298663832788)" fill-rule="evenodd"><path d="M1.84 1.14 L1.28 46.48 L1.82 47.69 L10.84 50.19 L23.48 50.73 L34.25 46.92 L39.52 47.78 L40.25 -1.97 L36.1 -1.2 L20.09 -3.47 L4.75 -1.67 L-1.67 -1.61" stroke="none" stroke-width="0" fill="#012b3e" fill-rule="evenodd"></path><path d="M-0.01 0.5 C-0.01 7.14, -1.17 32.4, -1.04 39.79 C-0.91 47.18, 0.11 43.53, 0.77 44.85 C1.43 46.18, 1.37 47.05, 2.93 47.74 C4.49 48.43, 6.91 48.89, 10.11 48.99 C13.3 49.09, 18.11 48.54, 22.1 48.34 C26.1 48.14, 30.83 48.01, 34.08 47.8 C37.32 47.6, 40.51 47.76, 41.57 47.12 C42.63 46.47, 40.39 44.91, 40.43 43.91 C40.47 42.91, 41.55 47.82, 41.83 41.1 C42.11 34.38, 42.06 10.38, 42.12 3.59 C42.18 -3.2, 42.81 1.22, 42.21 0.34 C41.62 -0.55, 40.01 -1.27, 38.54 -1.73 C37.07 -2.19, 36.51 -2.19, 33.4 -2.43 C30.3 -2.67, 23.72 -2.82, 19.92 -3.17 C16.13 -3.52, 13.69 -4.9, 10.64 -4.51 C7.58 -4.13, 3.35 -1.76, 1.61 -0.85 C-0.12 0.06, 0.44 0.93, 0.24 0.96 C0.03 1, 0.48 -0.32, 0.38 -0.64 M-1.47 -0.28 C-1.04 6.51, 0.75 33.24, 1.06 40.96 C1.37 48.68, -0.02 45.29, 0.4 46.05 C0.82 46.81, 2.17 44.95, 3.59 45.53 C5.01 46.1, 5.6 48.68, 8.92 49.5 C12.24 50.32, 19.22 50.41, 23.52 50.46 C27.82 50.51, 31.78 50.33, 34.71 49.77 C37.65 49.22, 39.93 47.79, 41.13 47.12 C42.34 46.45, 41.66 46.81, 41.93 45.74 C42.21 44.66, 42.63 47.51, 42.78 40.67 C42.93 33.83, 43.07 11.43, 42.83 4.68 C42.59 -2.07, 42.02 1.34, 41.35 0.17 C40.68 -1, 40.19 -1.95, 38.8 -2.34 C37.4 -2.73, 36.08 -2.03, 32.97 -2.17 C29.87 -2.3, 24.25 -2.89, 20.16 -3.15 C16.07 -3.4, 11.74 -3.67, 8.43 -3.69 C5.11 -3.72, 1.83 -3.61, 0.27 -3.3 C-1.28 -2.98, -0.73 -2.24, -0.91 -1.81 C-1.1 -1.38, -0.95 -1.09, -0.81 -0.72" stroke="#ffffff" stroke-width="1" fill="none"></path></g></g><mask></mask><g stroke-linecap="round"><g transform="translate(11.086245024138634 180.80598420793055) rotate(0 20.7585038665585 1.4505386719139608)"><path d="M0.5 -1.17 C0.58 -0.74, -0.45 1.71, 0.4 2.6 C1.24 3.49, 3.52 3.79, 5.58 4.17 C7.64 4.55, 9.99 4.82, 12.75 4.86 C15.51 4.9, 18.87 4.58, 22.16 4.4 C25.44 4.22, 29.58 4.07, 32.47 3.79 C35.35 3.52, 37.85 3.58, 39.47 2.76 C41.09 1.94, 42 -0.7, 42.21 -1.14 M-0.69 0.82 C-0.22 0.92, 1.85 0.64, 2.74 0.88 C3.64 1.11, 2.92 1.96, 4.69 2.24 C6.45 2.53, 10.66 2.17, 13.34 2.59 C16.03 3.01, 17.46 4.76, 20.8 4.79 C24.14 4.82, 30.22 3.21, 33.38 2.75 C36.54 2.28, 38.41 2.78, 39.77 2 C41.13 1.22, 41.12 -1.45, 41.53 -1.96" stroke="#ffffff" stroke-width="1" fill="none"></path></g></g><mask></mask><g stroke-linecap="round"><g transform="translate(11.174284699931718 165.02486381556977) rotate(0 20.798436950910457 1.9564980824951306)"><path d="M-1.17 -0.7 C-0.86 -0.51, 0.56 0.81, 1.86 1.6 C3.15 2.39, 4.81 3.54, 6.61 4.03 C8.4 4.52, 10.09 4.63, 12.64 4.53 C15.2 4.44, 18.48 3.67, 21.94 3.44 C25.4 3.21, 30.19 3.34, 33.41 3.15 C36.63 2.96, 40.04 3.01, 41.24 2.3 C42.45 1.6, 40.51 -0.65, 40.62 -1.07 M0.41 1.55 C0.63 1.87, 0.33 2.93, 1.31 3.01 C2.28 3.09, 4.28 1.58, 6.26 2.04 C8.23 2.49, 10.81 5.54, 13.18 5.76 C15.54 5.97, 16.86 3.39, 20.47 3.33 C24.07 3.28, 31.76 5.76, 34.82 5.43 C37.87 5.09, 37.49 2.52, 38.81 1.3 C40.14 0.09, 42.51 -1.38, 42.77 -1.86" stroke="#ffffff" stroke-width="1" fill="none"></path></g></g><mask></mask><g stroke-linecap="round" transform="translate(10.087260843623426 145.82870692513214) rotate(0 20.618026217060844 4.169840686620262)"><path d="M26.76 -0.66 C30.88 -0.23, 34.48 1.55, 36.89 2.54 C39.29 3.54, 41.45 4.66, 41.18 5.31 C40.92 5.96, 38.51 5.76, 35.29 6.43 C32.06 7.1, 26.34 9.22, 21.84 9.32 C17.33 9.41, 11.89 7.59, 8.25 7.01 C4.6 6.43, 0.91 6.73, -0.03 5.82 C-0.98 4.91, 0.55 2.46, 2.6 1.56 C4.66 0.67, 7.8 0.53, 12.29 0.45 C16.79 0.36, 26.54 0.93, 29.59 1.05 C32.64 1.18, 30.73 1.36, 30.57 1.21 M12.29 0.95 C16.23 0.58, 22.57 -1.46, 26.72 -1.21 C30.87 -0.96, 34.99 1.37, 37.21 2.46 C39.43 3.56, 40.38 4.49, 40.03 5.37 C39.67 6.24, 38.49 6.97, 35.08 7.69 C31.67 8.41, 24.07 9.92, 19.57 9.69 C15.08 9.47, 11.56 7.25, 8.12 6.34 C4.68 5.43, 0.03 4.71, -1.05 4.22 C-2.13 3.74, -0.82 3.85, 1.61 3.44 C4.04 3.02, 11.6 2.29, 13.5 1.73 C15.41 1.17, 13.19 0.03, 13.04 0.09" stroke="none" stroke-width="0" fill="#012b3e"></path><path d="M19.03 0.21 C23.07 -0.16, 28.67 -0.45, 32.24 -0.07 C35.81 0.31, 39.11 1.41, 40.46 2.5 C41.81 3.58, 42.29 5.65, 40.34 6.44 C38.4 7.22, 32.88 6.91, 28.79 7.22 C24.7 7.52, 19.87 8.32, 15.82 8.25 C11.77 8.17, 6.97 7.43, 4.49 6.77 C2.01 6.1, 0.7 5.13, 0.94 4.27 C1.17 3.41, 2.36 2.2, 5.9 1.61 C9.45 1.02, 19.08 0.82, 22.23 0.73 C25.37 0.65, 24.73 1.26, 24.75 1.09 M20.45 0.48 C24.3 0.24, 28.8 -0.33, 31.96 0.35 C35.12 1.02, 38.07 3.44, 39.41 4.55 C40.75 5.66, 41.57 6.47, 39.99 7.01 C38.41 7.54, 34.04 7.39, 29.94 7.74 C25.83 8.1, 19.58 9.18, 15.36 9.14 C11.13 9.1, 6.94 8.41, 4.58 7.53 C2.22 6.65, 1.09 5.03, 1.19 3.85 C1.29 2.68, 1.99 1.25, 5.16 0.46 C8.33 -0.33, 18.03 -0.78, 20.21 -0.87 C22.38 -0.96, 18.16 -0.29, 18.22 -0.07" stroke="#ffffff" stroke-width="1" fill="none"></path></g><g stroke-linecap="round" transform="translate(43.72963357420031 157.39060617921407) rotate(0 3.0217693829154655 3.2795448119070443)"><path d="M0.98 -0.52 C1.78 -0.9, 3.69 -0.2, 4.57 0.19 C5.45 0.57, 6.12 1.24, 6.24 1.77 C6.36 2.3, 5.31 2.77, 5.29 3.37 C5.27 3.97, 6.54 4.94, 6.1 5.36 C5.67 5.78, 3.39 5.71, 2.69 5.9 C1.99 6.08, 2.44 6.75, 1.88 6.46 C1.31 6.17, -0.45 4.79, -0.7 4.16 C-0.95 3.53, -0.23 3.42, 0.39 2.69 C1.01 1.96, 2.52 0.11, 3.02 -0.21 C3.52 -0.53, 3.59 0.8, 3.39 0.79 M2.39 -0.43 C2.9 -0.77, 1.73 -1.21, 2.31 -1.07 C2.89 -0.92, 5.17 -0.51, 5.88 0.42 C6.59 1.36, 6.6 3.92, 6.55 4.56 C6.49 5.21, 5.86 3.88, 5.55 4.31 C5.24 4.74, 5.57 7.09, 4.69 7.14 C3.81 7.19, 1.16 5.27, 0.28 4.6 C-0.6 3.93, -0.81 3.55, -0.6 3.13 C-0.38 2.71, 0.95 2.62, 1.58 2.07 C2.21 1.52, 3.18 0.38, 3.16 -0.15 C3.14 -0.67, 1.45 -1.24, 1.47 -1.08" stroke="none" stroke-width="0" fill="#012b3e"></path><path d="M4.19 0.18 C4.56 0.28, 4.6 0.82, 4.81 1.58 C5.03 2.33, 5.34 4.15, 5.46 4.72 C5.59 5.29, 6.08 4.63, 5.56 4.98 C5.04 5.34, 3.1 6.61, 2.37 6.85 C1.64 7.1, 1.52 6.79, 1.16 6.45 C0.8 6.1, 0.28 5.57, 0.22 4.79 C0.16 4, 0.45 2.42, 0.79 1.74 C1.13 1.05, 1.56 0.91, 2.28 0.66 C3.01 0.4, 4.57 0.11, 5.13 0.22 C5.69 0.33, 5.92 1.28, 5.66 1.33 M4.58 -0.58 C5.04 -0.79, 4.75 -0.42, 5.21 0.48 C5.68 1.37, 7.25 3.71, 7.37 4.76 C7.49 5.81, 6.7 6.42, 5.92 6.79 C5.15 7.17, 3.38 7, 2.72 7.01 C2.07 7.01, 2.28 7.18, 2 6.82 C1.72 6.46, 1.31 5.93, 1.07 4.86 C0.83 3.8, 0.51 1.05, 0.56 0.43 C0.6 -0.18, 0.89 1.38, 1.34 1.17 C1.78 0.97, 2.79 -0.85, 3.23 -0.8 C3.66 -0.75, 3.79 1.15, 3.92 1.48" stroke="#ffffff" stroke-width="1" fill="none"></path></g><g stroke-linecap="round" transform="translate(43.72963357420031 171.7877955697334) rotate(0 3.0217693829154655 3.2795448119070443)"><path d="M1.03 0.97 C1.51 0.93, 3.15 0.89, 3.96 0.85 C4.76 0.82, 5.57 0.12, 5.87 0.75 C6.17 1.39, 5.94 3.93, 5.77 4.66 C5.59 5.39, 5.34 4.72, 4.8 5.14 C4.27 5.56, 3.04 7.19, 2.53 7.19 C2.02 7.19, 2.13 5.63, 1.74 5.12 C1.35 4.6, 0.27 4.54, 0.18 4.11 C0.08 3.67, 0.92 3.07, 1.18 2.51 C1.43 1.95, 1.4 1.23, 1.69 0.76 C1.98 0.28, 2.95 -0.13, 2.89 -0.33 M0.99 -1.14 C1.51 -1.51, 2.05 0.02, 2.64 0.53 C3.24 1.03, 3.83 1.35, 4.57 1.91 C5.31 2.48, 7.2 3.08, 7.09 3.92 C6.98 4.76, 4.44 6.69, 3.91 6.95 C3.38 7.21, 4.55 5.78, 3.88 5.5 C3.21 5.22, 0.69 5.26, -0.11 5.25 C-0.92 5.24, -1.04 5.76, -0.95 5.44 C-0.86 5.13, 0.04 4.25, 0.41 3.35 C0.78 2.46, 1.28 0.31, 1.27 0.06 C1.25 -0.2, 0.17 1.85, 0.3 1.82" stroke="none" stroke-width="0" fill="#012b3e"></path><path d="M3.84 -0.67 C4.36 -0.66, 4.99 0.08, 5.51 0.88 C6.03 1.69, 7.15 3.48, 6.96 4.15 C6.77 4.83, 4.93 4.51, 4.36 4.91 C3.8 5.32, 3.96 6.39, 3.54 6.59 C3.13 6.79, 2.3 6.45, 1.88 6.11 C1.45 5.76, 1.23 5.16, 0.97 4.51 C0.72 3.86, 0.13 2.79, 0.34 2.21 C0.55 1.63, 1.56 1.17, 2.21 1.02 C2.86 0.86, 3.69 1.43, 4.23 1.27 C4.78 1.1, 5.51 0.03, 5.49 0.05 M2.54 -0.44 C2.75 -0.25, 3.26 1.64, 3.98 2.39 C4.71 3.14, 6.48 3.63, 6.89 4.06 C7.3 4.49, 6.87 4.41, 6.42 4.97 C5.97 5.53, 4.81 7.05, 4.2 7.43 C3.58 7.81, 3.24 7.7, 2.76 7.25 C2.28 6.8, 1.96 5.66, 1.33 4.73 C0.7 3.8, -1.2 2.51, -1.03 1.66 C-0.87 0.82, 1.78 -0.03, 2.34 -0.33 C2.9 -0.63, 1.96 -0.22, 2.33 -0.15 C2.69 -0.08, 4.27 0.06, 4.53 0.08" stroke="#ffffff" stroke-width="1" fill="none"></path></g><g stroke-linecap="round" transform="translate(43.72963357420031 187.43562747220247) rotate(0 3.0217693829154655 3.2795448119070443)"><path d="M4.48 0.16 C5.34 0.47, 6.05 1.17, 6.19 1.69 C6.33 2.2, 5.3 2.67, 5.3 3.27 C5.3 3.87, 6.59 4.85, 6.17 5.29 C5.75 5.72, 3.49 5.68, 2.78 5.89 C2.08 6.09, 2.53 6.79, 1.95 6.52 C1.38 6.25, -0.41 4.89, -0.67 4.26 C-0.94 3.64, -0.16 3.49, 0.35 2.78 C0.87 2.07, 1.74 0.34, 2.43 0.02 C3.11 -0.3, 4.29 0.94, 4.47 0.86 C4.65 0.78, 3.75 -0.25, 3.49 -0.46 M0.51 -0.95 C1.02 -1.26, 3.5 -1.35, 4.43 -0.74 C5.37 -0.14, 5.81 2.11, 6.13 2.66 C6.45 3.21, 6.32 1.95, 6.36 2.56 C6.39 3.18, 7.07 5.93, 6.34 6.37 C5.62 6.8, 3 5.43, 2.01 5.16 C1.02 4.89, 0.5 4.96, 0.4 4.76 C0.29 4.57, 1.13 4.61, 1.37 4.01 C1.61 3.42, 1.79 2.07, 1.85 1.19 C1.91 0.32, 1.44 -1.13, 1.7 -1.26 C1.97 -1.38, 3.5 0.29, 3.43 0.46" stroke="none" stroke-width="0" fill="#012b3e"></path><path d="M2.91 0.08 C3.4 0.34, 4.28 1.8, 4.89 2.24 C5.5 2.67, 6.65 2.09, 6.59 2.68 C6.53 3.28, 5.05 5.07, 4.52 5.81 C3.99 6.56, 3.92 6.97, 3.43 7.15 C2.93 7.33, 2.02 7.39, 1.54 6.91 C1.06 6.43, 0.7 5.02, 0.55 4.28 C0.39 3.53, 0.28 3.11, 0.59 2.43 C0.9 1.75, 1.59 0.45, 2.38 0.21 C3.17 -0.02, 5.01 0.94, 5.33 1.03 C5.65 1.12, 4.36 0.77, 4.31 0.74 M3.78 -0.94 C4.51 -0.44, 6.58 1.68, 7.11 2.67 C7.64 3.67, 7.38 4.4, 6.96 5.01 C6.54 5.63, 5.1 5.94, 4.57 6.37 C4.05 6.8, 4.23 7.56, 3.79 7.62 C3.36 7.68, 2.58 7.58, 1.97 6.73 C1.36 5.87, 0.51 3.2, 0.14 2.49 C-0.22 1.78, -0.39 3.02, -0.2 2.46 C-0.01 1.9, 0.58 -0.72, 1.29 -0.89 C2 -1.05, 3.58 1.17, 4.07 1.47 C4.55 1.77, 4.26 0.95, 4.2 0.94" stroke="#ffffff" stroke-width="1" fill="none"></path></g><g transform="translate(42.11792068595287 257.55592676072035) rotate(0 68.4755859375 7)"><text x="0" y="0" font-family="Cascadia, Segoe UI Emoji" font-size="11.13821138211382px" fill="#ffffff" text-anchor="start" style="white-space: pre;" direction="ltr" dominant-baseline="text-before-edge">b.internal.domain.com</text></g><g stroke-linecap="round" transform="translate(30.117920685952868 290.7634026245415) rotate(0 80.5 43)"><path d="M-0.01 1.71 C38.25 -0.91, 77.26 -0.52, 160.26 0.7 M-0.78 -0.34 C38.59 -0.27, 76.49 0.3, 161.14 -0.8 M159.22 -0.22 C160.73 23.44, 159.26 46.27, 159.39 84.63 M160.35 0.73 C159.9 20.05, 159.79 39.95, 161.11 86.57 M159.64 86.5 C117.8 86.63, 78.31 87.14, 0.84 86.28 M161.82 85.32 C106.47 88, 52.66 86.99, 0.25 86.83 M1.45 87.85 C-0.65 55.89, -0.61 27.32, -1.09 -1.89 M0.61 85.12 C0.5 63.35, -0.99 42.57, 0.46 -0.32" stroke="#ffffff" stroke-width="1" fill="none"></path></g><g transform="translate(58.38354568595287 321.7634026245415) rotate(0 52.734375 12.5)"><text x="52.734375" y="0" font-family="Cascadia, Segoe UI Emoji" font-size="20px" fill="#ffffff" text-anchor="middle" style="white-space: pre;" direction="ltr" dominant-baseline="text-before-edge">Service C</text></g><g transform="translate(41.11792068595287 378.7634026245415) rotate(0 68.4755859375 7)"><text x="0" y="0" font-family="Cascadia, Segoe UI Emoji" font-size="11.13821138211382px" fill="#ffffff" text-anchor="start" style="white-space: pre;" direction="ltr" dominant-baseline="text-before-edge">c.internal.domain.com</text></g></svg>